<?xml version="1.0" standalone="no"?>
<!DOCTYPE svg PUBLIC "-//W3C//DTD SVG 20010904//EN"
 "http://www.w3.org/TR/2001/REC-SVG-20010904/DTD/svg10.dtd">
<svg version="1.0" xmlns="http://www.w3.org/2000/svg"
 width="600.000000pt" height="600.000000pt" viewBox="0 0 600.000000 600.000000"
 preserveAspectRatio="xMidYMid meet">

<g transform="translate(0.000000,600.000000) scale(0.100000,-0.100000)"
fill="#000000" stroke="none">
<path d="M1401 5659 c-203 -101 -394 -354 -500 -662 -75 -218 -86 -290 -85
-557 0 -230 1 -237 31 -352 63 -235 126 -362 483 -973 330 -565 470 -795 481
-795 7 0 82 132 376 659 l164 294 -14 46 c-8 25 -131 377 -275 781 -243 686
-332 942 -493 1413 -35 103 -69 187 -75 187 -7 0 -48 -18 -93 -41z"/>
<path d="M4471 5668 c-7 -18 -57 -163 -111 -323 -117 -346 -293 -847 -539
-1538 -100 -279 -181 -515 -181 -525 0 -21 521 -954 536 -959 11 -4 45 52 319
517 240 408 466 802 518 907 253 503 213 1127 -101 1603 -103 155 -294 319
-403 345 -23 6 -28 2 -38 -27z"/>
<path d="M2892 3913 c-160 -240 -372 -588 -372 -612 0 -20 468 -751 480 -751
5 0 49 64 98 143 49 78 155 247 236 375 l147 233 -52 92 c-121 212 -414 667
-430 667 -5 0 -53 -66 -107 -147z"/>
<path d="M998 3053 c-16 -3 -28 -11 -28 -19 0 -45 52 -490 58 -495 15 -15 616
-368 619 -365 2 2 -44 79 -103 170 l-107 167 -110 77 -110 77 -39 105 c-21 58
-55 147 -74 198 -39 98 -35 96 -106 85z"/>
<path d="M4934 3054 c-7 -3 -44 -92 -83 -198 l-72 -193 -145 -63 -144 -64
-111 -169 c-61 -93 -109 -170 -107 -172 4 -5 660 325 687 345 17 13 23 43 45
260 19 188 22 246 13 252 -13 8 -65 9 -83 2z"/>
<path d="M2377 2923 c-82 -158 -226 -412 -315 -556 -66 -106 -69 -109 -247
-252 -99 -79 -197 -159 -217 -177 l-37 -33 -21 -335 c-11 -184 -23 -365 -26
-402 l-7 -68 56 0 56 0 11 57 c58 289 132 618 140 628 6 7 52 29 102 50 l92
39 518 -72 517 -71 516 71 516 71 95 -39 c52 -21 99 -43 103 -49 4 -5 39 -156
76 -335 37 -179 72 -331 78 -337 5 -7 29 -13 53 -13 l44 0 -1 63 c0 34 -10
216 -23 404 -22 337 -23 342 -47 363 -13 11 -112 92 -219 179 l-195 158 -101
169 c-97 161 -217 375 -299 532 -20 39 -41 72 -45 72 -4 0 -127 -207 -275
-460 -147 -253 -271 -462 -275 -465 -3 -2 -49 69 -100 158 -252 435 -443 763
-450 770 -4 5 -37 -49 -73 -120z"/>
<path d="M2336 1561 c-14 -32 -26 -66 -26 -75 0 -26 675 -1176 690 -1176 4 0
43 60 86 132 163 278 552 945 579 994 l28 51 -23 57 c-13 31 -29 61 -35 66 -6
5 -127 -21 -300 -65 -160 -41 -309 -74 -333 -75 -32 0 -506 111 -623 146 -12
3 -23 -11 -43 -55z"/>
</g>
</svg>
